<?xml version="1.0" encoding="utf-8"?>
<svg xmlns="http://www.w3.org/2000/svg" xmlns:xlink="http://www.w3.org/1999/xlink" width="600" height="400" viewBox="0 0 2400 1600">
<defs>
  <clipPath id="clip060">
    <rect x="0" y="0" width="2400" height="1600"/>
  </clipPath>
</defs>
<path clip-path="url(#clip060)" d="
M0 1600 L2400 1600 L2400 0 L0 0  Z
  " fill="#ffffff" fill-rule="evenodd" fill-opacity="1"/>
<defs>
  <clipPath id="clip061">
    <rect x="480" y="0" width="1681" height="1600"/>
  </clipPath>
</defs>
<path clip-path="url(#clip060)" d="
M156.598 1486.45 L2352.76 1486.45 L2352.76 47.2441 L156.598 47.2441  Z
  " fill="#ffffff" fill-rule="evenodd" fill-opacity="1"/>
<defs>
  <clipPath id="clip062">
    <rect x="156" y="47" width="2197" height="1440"/>
  </clipPath>
</defs>
<polyline clip-path="url(#clip062)" style="stroke:#000000; stroke-linecap:butt; stroke-linejoin:round; stroke-width:2; stroke-opacity:0.1; fill:none" points="
  218.754,1486.45 218.754,47.2441 
  "/>
<polyline clip-path="url(#clip062)" style="stroke:#000000; stroke-linecap:butt; stroke-linejoin:round; stroke-width:2; stroke-opacity:0.1; fill:none" points="
  736.715,1486.45 736.715,47.2441 
  "/>
<polyline clip-path="url(#clip062)" style="stroke:#000000; stroke-linecap:butt; stroke-linejoin:round; stroke-width:2; stroke-opacity:0.1; fill:none" points="
  1254.68,1486.45 1254.68,47.2441 
  "/>
<polyline clip-path="url(#clip062)" style="stroke:#000000; stroke-linecap:butt; stroke-linejoin:round; stroke-width:2; stroke-opacity:0.1; fill:none" points="
  1772.64,1486.45 1772.64,47.2441 
  "/>
<polyline clip-path="url(#clip062)" style="stroke:#000000; stroke-linecap:butt; stroke-linejoin:round; stroke-width:2; stroke-opacity:0.1; fill:none" points="
  2290.6,1486.45 2290.6,47.2441 
  "/>
<polyline clip-path="url(#clip060)" style="stroke:#000000; stroke-linecap:butt; stroke-linejoin:round; stroke-width:4; stroke-opacity:1; fill:none" points="
  156.598,1486.45 2352.76,1486.45 
  "/>
<polyline clip-path="url(#clip060)" style="stroke:#000000; stroke-linecap:butt; stroke-linejoin:round; stroke-width:4; stroke-opacity:1; fill:none" points="
  218.754,1486.45 218.754,1467.55 
  "/>
<polyline clip-path="url(#clip060)" style="stroke:#000000; stroke-linecap:butt; stroke-linejoin:round; stroke-width:4; stroke-opacity:1; fill:none" points="
  736.715,1486.45 736.715,1467.55 
  "/>
<polyline clip-path="url(#clip060)" style="stroke:#000000; stroke-linecap:butt; stroke-linejoin:round; stroke-width:4; stroke-opacity:1; fill:none" points="
  1254.68,1486.45 1254.68,1467.55 
  "/>
<polyline clip-path="url(#clip060)" style="stroke:#000000; stroke-linecap:butt; stroke-linejoin:round; stroke-width:4; stroke-opacity:1; fill:none" points="
  1772.64,1486.45 1772.64,1467.55 
  "/>
<polyline clip-path="url(#clip060)" style="stroke:#000000; stroke-linecap:butt; stroke-linejoin:round; stroke-width:4; stroke-opacity:1; fill:none" points="
  2290.6,1486.45 2290.6,1467.55 
  "/>
<path clip-path="url(#clip060)" d="M181.057 1517.37 Q177.446 1517.37 175.617 1520.93 Q173.812 1524.47 173.812 1531.6 Q173.812 1538.71 175.617 1542.27 Q177.446 1545.82 181.057 1545.82 Q184.691 1545.82 186.497 1542.27 Q188.326 1538.71 188.326 1531.6 Q188.326 1524.47 186.497 1520.93 Q184.691 1517.37 181.057 1517.37 M181.057 1513.66 Q186.867 1513.66 189.923 1518.27 Q193.001 1522.85 193.001 1531.6 Q193.001 1540.33 189.923 1544.94 Q186.867 1549.52 181.057 1549.52 Q175.247 1549.52 172.168 1544.94 Q169.113 1540.33 169.113 1531.6 Q169.113 1522.85 172.168 1518.27 Q175.247 1513.66 181.057 1513.66 Z" fill="#000000" fill-rule="evenodd" fill-opacity="1" /><path clip-path="url(#clip060)" d="M201.219 1542.97 L206.103 1542.97 L206.103 1548.85 L201.219 1548.85 L201.219 1542.97 Z" fill="#000000" fill-rule="evenodd" fill-opacity="1" /><path clip-path="url(#clip060)" d="M226.288 1517.37 Q222.677 1517.37 220.849 1520.93 Q219.043 1524.47 219.043 1531.6 Q219.043 1538.71 220.849 1542.27 Q222.677 1545.82 226.288 1545.82 Q229.923 1545.82 231.728 1542.27 Q233.557 1538.71 233.557 1531.6 Q233.557 1524.47 231.728 1520.93 Q229.923 1517.37 226.288 1517.37 M226.288 1513.66 Q232.098 1513.66 235.154 1518.27 Q238.233 1522.85 238.233 1531.6 Q238.233 1540.33 235.154 1544.94 Q232.098 1549.52 226.288 1549.52 Q220.478 1549.52 217.399 1544.94 Q214.344 1540.33 214.344 1531.6 Q214.344 1522.85 217.399 1518.27 Q220.478 1513.66 226.288 1513.66 Z" fill="#000000" fill-rule="evenodd" fill-opacity="1" /><path clip-path="url(#clip060)" d="M256.45 1517.37 Q252.839 1517.37 251.01 1520.93 Q249.205 1524.47 249.205 1531.6 Q249.205 1538.71 251.01 1542.27 Q252.839 1545.82 256.45 1545.82 Q260.084 1545.82 261.89 1542.27 Q263.719 1538.71 263.719 1531.6 Q263.719 1524.47 261.89 1520.93 Q260.084 1517.37 256.45 1517.37 M256.45 1513.66 Q262.26 1513.66 265.316 1518.27 Q268.395 1522.85 268.395 1531.6 Q268.395 1540.33 265.316 1544.94 Q262.26 1549.52 256.45 1549.52 Q250.64 1549.52 247.561 1544.94 Q244.506 1540.33 244.506 1531.6 Q244.506 1522.85 247.561 1518.27 Q250.64 1513.66 256.45 1513.66 Z" fill="#000000" fill-rule="evenodd" fill-opacity="1" /><path clip-path="url(#clip060)" d="M699.516 1517.37 Q695.905 1517.37 694.077 1520.93 Q692.271 1524.47 692.271 1531.6 Q692.271 1538.71 694.077 1542.27 Q695.905 1545.82 699.516 1545.82 Q703.151 1545.82 704.956 1542.27 Q706.785 1538.71 706.785 1531.6 Q706.785 1524.47 704.956 1520.93 Q703.151 1517.37 699.516 1517.37 M699.516 1513.66 Q705.327 1513.66 708.382 1518.27 Q711.461 1522.85 711.461 1531.6 Q711.461 1540.33 708.382 1544.94 Q705.327 1549.52 699.516 1549.52 Q693.706 1549.52 690.628 1544.94 Q687.572 1540.33 687.572 1531.6 Q687.572 1522.85 690.628 1518.27 Q693.706 1513.66 699.516 1513.66 Z" fill="#000000" fill-rule="evenodd" fill-opacity="1" /><path clip-path="url(#clip060)" d="M719.678 1542.97 L724.563 1542.97 L724.563 1548.85 L719.678 1548.85 L719.678 1542.97 Z" fill="#000000" fill-rule="evenodd" fill-opacity="1" /><path clip-path="url(#clip060)" d="M738.776 1544.91 L755.095 1544.91 L755.095 1548.85 L733.151 1548.85 L733.151 1544.91 Q735.813 1542.16 740.396 1537.53 Q745.002 1532.88 746.183 1531.53 Q748.428 1529.01 749.308 1527.27 Q750.211 1525.51 750.211 1523.82 Q750.211 1521.07 748.266 1519.33 Q746.345 1517.6 743.243 1517.6 Q741.044 1517.6 738.59 1518.36 Q736.16 1519.13 733.382 1520.68 L733.382 1515.95 Q736.206 1514.82 738.66 1514.24 Q741.113 1513.66 743.151 1513.66 Q748.521 1513.66 751.715 1516.35 Q754.91 1519.03 754.91 1523.52 Q754.91 1525.65 754.1 1527.57 Q753.312 1529.47 751.206 1532.07 Q750.627 1532.74 747.525 1535.95 Q744.424 1539.15 738.776 1544.91 Z" fill="#000000" fill-rule="evenodd" fill-opacity="1" /><path clip-path="url(#clip060)" d="M764.956 1514.29 L783.312 1514.29 L783.312 1518.22 L769.238 1518.22 L769.238 1526.7 Q770.257 1526.35 771.275 1526.19 Q772.294 1526 773.312 1526 Q779.099 1526 782.479 1529.17 Q785.859 1532.34 785.859 1537.76 Q785.859 1543.34 782.386 1546.44 Q778.914 1549.52 772.595 1549.52 Q770.419 1549.52 768.15 1549.15 Q765.905 1548.78 763.498 1548.04 L763.498 1543.34 Q765.581 1544.47 767.803 1545.03 Q770.025 1545.58 772.502 1545.58 Q776.507 1545.58 778.845 1543.48 Q781.183 1541.37 781.183 1537.76 Q781.183 1534.15 778.845 1532.04 Q776.507 1529.94 772.502 1529.94 Q770.627 1529.94 768.752 1530.35 Q766.9 1530.77 764.956 1531.65 L764.956 1514.29 Z" fill="#000000" fill-rule="evenodd" fill-opacity="1" /><path clip-path="url(#clip060)" d="M1216.98 1517.37 Q1213.37 1517.37 1211.54 1520.93 Q1209.74 1524.47 1209.74 1531.6 Q1209.74 1538.71 1211.54 1542.27 Q1213.37 1545.82 1216.98 1545.82 Q1220.61 1545.82 1222.42 1542.27 Q1224.25 1538.71 1224.25 1531.6 Q1224.25 1524.47 1222.42 1520.93 Q1220.61 1517.37 1216.98 1517.37 M1216.98 1513.66 Q1222.79 1513.66 1225.85 1518.27 Q1228.92 1522.85 1228.92 1531.6 Q1228.92 1540.33 1225.85 1544.94 Q1222.79 1549.52 1216.98 1549.52 Q1211.17 1549.52 1208.09 1544.94 Q1205.04 1540.33 1205.04 1531.6 Q1205.04 1522.85 1208.09 1518.27 Q1211.17 1513.66 1216.98 1513.66 Z" fill="#000000" fill-rule="evenodd" fill-opacity="1" /><path clip-path="url(#clip060)" d="M1237.14 1542.97 L1242.03 1542.97 L1242.03 1548.85 L1237.14 1548.85 L1237.14 1542.97 Z" fill="#000000" fill-rule="evenodd" fill-opacity="1" /><path clip-path="url(#clip060)" d="M1252.26 1514.29 L1270.61 1514.29 L1270.61 1518.22 L1256.54 1518.22 L1256.54 1526.7 Q1257.56 1526.35 1258.58 1526.19 Q1259.6 1526 1260.61 1526 Q1266.4 1526 1269.78 1529.17 Q1273.16 1532.34 1273.16 1537.76 Q1273.16 1543.34 1269.69 1546.44 Q1266.22 1549.52 1259.9 1549.52 Q1257.72 1549.52 1255.45 1549.15 Q1253.21 1548.78 1250.8 1548.04 L1250.8 1543.34 Q1252.88 1544.47 1255.11 1545.03 Q1257.33 1545.58 1259.8 1545.58 Q1263.81 1545.58 1266.15 1543.48 Q1268.48 1541.37 1268.48 1537.76 Q1268.48 1534.15 1266.15 1532.04 Q1263.81 1529.94 1259.8 1529.94 Q1257.93 1529.94 1256.05 1530.35 Q1254.2 1530.77 1252.26 1531.65 L1252.26 1514.29 Z" fill="#000000" fill-rule="evenodd" fill-opacity="1" /><path clip-path="url(#clip060)" d="M1292.37 1517.37 Q1288.76 1517.37 1286.93 1520.93 Q1285.13 1524.47 1285.13 1531.6 Q1285.13 1538.71 1286.93 1542.27 Q1288.76 1545.82 1292.37 1545.82 Q1296.01 1545.82 1297.81 1542.27 Q1299.64 1538.71 1299.64 1531.6 Q1299.64 1524.47 1297.81 1520.93 Q1296.01 1517.37 1292.37 1517.37 M1292.37 1513.66 Q1298.18 1513.66 1301.24 1518.27 Q1304.32 1522.85 1304.32 1531.6 Q1304.32 1540.33 1301.24 1544.94 Q1298.18 1549.52 1292.37 1549.52 Q1286.56 1549.52 1283.48 1544.94 Q1280.43 1540.33 1280.43 1531.6 Q1280.43 1522.85 1283.48 1518.27 Q1286.56 1513.66 1292.37 1513.66 Z" fill="#000000" fill-rule="evenodd" fill-opacity="1" /><path clip-path="url(#clip060)" d="M1735.44 1517.37 Q1731.83 1517.37 1730 1520.93 Q1728.19 1524.47 1728.19 1531.6 Q1728.19 1538.71 1730 1542.27 Q1731.83 1545.82 1735.44 1545.82 Q1739.07 1545.82 1740.88 1542.27 Q1742.71 1538.71 1742.71 1531.6 Q1742.71 1524.47 1740.88 1520.93 Q1739.07 1517.37 1735.44 1517.37 M1735.44 1513.66 Q1741.25 1513.66 1744.31 1518.27 Q1747.38 1522.85 1747.38 1531.6 Q1747.38 1540.33 1744.31 1544.94 Q1741.25 1549.52 1735.44 1549.52 Q1729.63 1549.52 1726.55 1544.94 Q1723.5 1540.33 1723.5 1531.6 Q1723.5 1522.85 1726.55 1518.27 Q1729.63 1513.66 1735.44 1513.66 Z" fill="#000000" fill-rule="evenodd" fill-opacity="1" /><path clip-path="url(#clip060)" d="M1755.6 1542.97 L1760.49 1542.97 L1760.49 1548.85 L1755.6 1548.85 L1755.6 1542.97 Z" fill="#000000" fill-rule="evenodd" fill-opacity="1" /><path clip-path="url(#clip060)" d="M1769.49 1514.29 L1791.71 1514.29 L1791.71 1516.28 L1779.17 1548.85 L1774.28 1548.85 L1786.09 1518.22 L1769.49 1518.22 L1769.49 1514.29 Z" fill="#000000" fill-rule="evenodd" fill-opacity="1" /><path clip-path="url(#clip060)" d="M1800.88 1514.29 L1819.24 1514.29 L1819.24 1518.22 L1805.16 1518.22 L1805.16 1526.7 Q1806.18 1526.35 1807.2 1526.19 Q1808.22 1526 1809.24 1526 Q1815.02 1526 1818.4 1529.17 Q1821.78 1532.34 1821.78 1537.76 Q1821.78 1543.34 1818.31 1546.44 Q1814.84 1549.52 1808.52 1549.52 Q1806.34 1549.52 1804.07 1549.15 Q1801.83 1548.78 1799.42 1548.04 L1799.42 1543.34 Q1801.5 1544.47 1803.73 1545.03 Q1805.95 1545.58 1808.43 1545.58 Q1812.43 1545.58 1814.77 1543.48 Q1817.11 1541.37 1817.11 1537.76 Q1817.11 1534.15 1814.77 1532.04 Q1812.43 1529.94 1808.43 1529.94 Q1806.55 1529.94 1804.68 1530.35 Q1802.82 1530.77 1800.88 1531.65 L1800.88 1514.29 Z" fill="#000000" fill-rule="evenodd" fill-opacity="1" /><path clip-path="url(#clip060)" d="M2242.67 1544.91 L2250.31 1544.91 L2250.31 1518.55 L2242 1520.21 L2242 1515.95 L2250.27 1514.29 L2254.94 1514.29 L2254.94 1544.91 L2262.58 1544.91 L2262.58 1548.85 L2242.67 1548.85 L2242.67 1544.91 Z" fill="#000000" fill-rule="evenodd" fill-opacity="1" /><path clip-path="url(#clip060)" d="M2272.02 1542.97 L2276.91 1542.97 L2276.91 1548.85 L2272.02 1548.85 L2272.02 1542.97 Z" fill="#000000" fill-rule="evenodd" fill-opacity="1" /><path clip-path="url(#clip060)" d="M2297.09 1517.37 Q2293.48 1517.37 2291.65 1520.93 Q2289.85 1524.47 2289.85 1531.6 Q2289.85 1538.71 2291.65 1542.27 Q2293.48 1545.82 2297.09 1545.82 Q2300.73 1545.82 2302.53 1542.27 Q2304.36 1538.71 2304.36 1531.6 Q2304.36 1524.47 2302.53 1520.93 Q2300.73 1517.37 2297.09 1517.37 M2297.09 1513.66 Q2302.9 1513.66 2305.96 1518.27 Q2309.04 1522.85 2309.04 1531.6 Q2309.04 1540.33 2305.96 1544.94 Q2302.9 1549.52 2297.09 1549.52 Q2291.28 1549.52 2288.2 1544.94 Q2285.15 1540.33 2285.15 1531.6 Q2285.15 1522.85 2288.2 1518.27 Q2291.28 1513.66 2297.09 1513.66 Z" fill="#000000" fill-rule="evenodd" fill-opacity="1" /><path clip-path="url(#clip060)" d="M2327.26 1517.37 Q2323.64 1517.37 2321.82 1520.93 Q2320.01 1524.47 2320.01 1531.6 Q2320.01 1538.71 2321.82 1542.27 Q2323.64 1545.82 2327.26 1545.82 Q2330.89 1545.82 2332.7 1542.27 Q2334.52 1538.71 2334.52 1531.6 Q2334.52 1524.47 2332.7 1520.93 Q2330.89 1517.37 2327.26 1517.37 M2327.26 1513.66 Q2333.07 1513.66 2336.12 1518.27 Q2339.2 1522.85 2339.2 1531.6 Q2339.2 1540.33 2336.12 1544.94 Q2333.07 1549.52 2327.26 1549.52 Q2321.45 1549.52 2318.37 1544.94 Q2315.31 1540.33 2315.31 1531.6 Q2315.31 1522.85 2318.37 1518.27 Q2321.45 1513.66 2327.26 1513.66 Z" fill="#000000" fill-rule="evenodd" fill-opacity="1" /><polyline clip-path="url(#clip062)" style="stroke:#000000; stroke-linecap:butt; stroke-linejoin:round; stroke-width:2; stroke-opacity:0.1; fill:none" points="
  156.598,1304.38 2352.76,1304.38 
  "/>
<polyline clip-path="url(#clip062)" style="stroke:#000000; stroke-linecap:butt; stroke-linejoin:round; stroke-width:2; stroke-opacity:0.1; fill:none" points="
  156.598,953.22 2352.76,953.22 
  "/>
<polyline clip-path="url(#clip062)" style="stroke:#000000; stroke-linecap:butt; stroke-linejoin:round; stroke-width:2; stroke-opacity:0.1; fill:none" points="
  156.598,602.065 2352.76,602.065 
  "/>
<polyline clip-path="url(#clip062)" style="stroke:#000000; stroke-linecap:butt; stroke-linejoin:round; stroke-width:2; stroke-opacity:0.1; fill:none" points="
  156.598,250.91 2352.76,250.91 
  "/>
<polyline clip-path="url(#clip060)" style="stroke:#000000; stroke-linecap:butt; stroke-linejoin:round; stroke-width:4; stroke-opacity:1; fill:none" points="
  156.598,1486.45 156.598,47.2441 
  "/>
<polyline clip-path="url(#clip060)" style="stroke:#000000; stroke-linecap:butt; stroke-linejoin:round; stroke-width:4; stroke-opacity:1; fill:none" points="
  156.598,1304.38 175.496,1304.38 
  "/>
<polyline clip-path="url(#clip060)" style="stroke:#000000; stroke-linecap:butt; stroke-linejoin:round; stroke-width:4; stroke-opacity:1; fill:none" points="
  156.598,953.22 175.496,953.22 
  "/>
<polyline clip-path="url(#clip060)" style="stroke:#000000; stroke-linecap:butt; stroke-linejoin:round; stroke-width:4; stroke-opacity:1; fill:none" points="
  156.598,602.065 175.496,602.065 
  "/>
<polyline clip-path="url(#clip060)" style="stroke:#000000; stroke-linecap:butt; stroke-linejoin:round; stroke-width:4; stroke-opacity:1; fill:none" points="
  156.598,250.91 175.496,250.91 
  "/>
<path clip-path="url(#clip060)" d="M63.4226 1290.17 Q59.8115 1290.17 57.9828 1293.74 Q56.1773 1297.28 56.1773 1304.41 Q56.1773 1311.52 57.9828 1315.08 Q59.8115 1318.62 63.4226 1318.62 Q67.0569 1318.62 68.8624 1315.08 Q70.6911 1311.52 70.6911 1304.41 Q70.6911 1297.28 68.8624 1293.74 Q67.0569 1290.17 63.4226 1290.17 M63.4226 1286.47 Q69.2328 1286.47 72.2883 1291.08 Q75.367 1295.66 75.367 1304.41 Q75.367 1313.14 72.2883 1317.74 Q69.2328 1322.33 63.4226 1322.33 Q57.6125 1322.33 54.5338 1317.74 Q51.4782 1313.14 51.4782 1304.41 Q51.4782 1295.66 54.5338 1291.08 Q57.6125 1286.47 63.4226 1286.47 Z" fill="#000000" fill-rule="evenodd" fill-opacity="1" /><path clip-path="url(#clip060)" d="M83.5845 1315.78 L88.4688 1315.78 L88.4688 1321.66 L83.5845 1321.66 L83.5845 1315.78 Z" fill="#000000" fill-rule="evenodd" fill-opacity="1" /><path clip-path="url(#clip060)" d="M108.654 1290.17 Q105.043 1290.17 103.214 1293.74 Q101.409 1297.28 101.409 1304.41 Q101.409 1311.52 103.214 1315.08 Q105.043 1318.62 108.654 1318.62 Q112.288 1318.62 114.094 1315.08 Q115.922 1311.52 115.922 1304.41 Q115.922 1297.28 114.094 1293.74 Q112.288 1290.17 108.654 1290.17 M108.654 1286.47 Q114.464 1286.47 117.52 1291.08 Q120.598 1295.66 120.598 1304.41 Q120.598 1313.14 117.52 1317.74 Q114.464 1322.33 108.654 1322.33 Q102.844 1322.33 99.765 1317.74 Q96.7095 1313.14 96.7095 1304.41 Q96.7095 1295.66 99.765 1291.08 Q102.844 1286.47 108.654 1286.47 Z" fill="#000000" fill-rule="evenodd" fill-opacity="1" /><path clip-path="url(#clip060)" d="M65.0198 939.019 Q61.4087 939.019 59.58 942.584 Q57.7745 946.125 57.7745 953.255 Q57.7745 960.361 59.58 963.926 Q61.4087 967.468 65.0198 967.468 Q68.6541 967.468 70.4596 963.926 Q72.2883 960.361 72.2883 953.255 Q72.2883 946.125 70.4596 942.584 Q68.6541 939.019 65.0198 939.019 M65.0198 935.315 Q70.83 935.315 73.8855 939.922 Q76.9642 944.505 76.9642 953.255 Q76.9642 961.982 73.8855 966.588 Q70.83 971.172 65.0198 971.172 Q59.2097 971.172 56.131 966.588 Q53.0754 961.982 53.0754 953.255 Q53.0754 944.505 56.131 939.922 Q59.2097 935.315 65.0198 935.315 Z" fill="#000000" fill-rule="evenodd" fill-opacity="1" /><path clip-path="url(#clip060)" d="M85.1818 964.621 L90.066 964.621 L90.066 970.5 L85.1818 970.5 L85.1818 964.621 Z" fill="#000000" fill-rule="evenodd" fill-opacity="1" /><path clip-path="url(#clip060)" d="M104.279 966.565 L120.598 966.565 L120.598 970.5 L98.6539 970.5 L98.6539 966.565 Q101.316 963.811 105.899 959.181 Q110.506 954.528 111.686 953.186 Q113.932 950.662 114.811 948.926 Q115.714 947.167 115.714 945.477 Q115.714 942.723 113.77 940.987 Q111.848 939.25 108.746 939.25 Q106.547 939.25 104.094 940.014 Q101.663 940.778 98.8854 942.329 L98.8854 937.607 Q101.709 936.473 104.163 935.894 Q106.617 935.315 108.654 935.315 Q114.024 935.315 117.219 938 Q120.413 940.686 120.413 945.176 Q120.413 947.306 119.603 949.227 Q118.816 951.125 116.709 953.718 Q116.131 954.389 113.029 957.607 Q109.927 960.801 104.279 966.565 Z" fill="#000000" fill-rule="evenodd" fill-opacity="1" /><path clip-path="url(#clip060)" d="M62.9365 587.864 Q59.3254 587.864 57.4967 591.428 Q55.6912 594.97 55.6912 602.1 Q55.6912 609.206 57.4967 612.771 Q59.3254 616.313 62.9365 616.313 Q66.5707 616.313 68.3763 612.771 Q70.205 609.206 70.205 602.1 Q70.205 594.97 68.3763 591.428 Q66.5707 587.864 62.9365 587.864 M62.9365 584.16 Q68.7467 584.16 71.8022 588.766 Q74.8809 593.35 74.8809 602.1 Q74.8809 610.826 71.8022 615.433 Q68.7467 620.016 62.9365 620.016 Q57.1264 620.016 54.0477 615.433 Q50.9921 610.826 50.9921 602.1 Q50.9921 593.35 54.0477 588.766 Q57.1264 584.16 62.9365 584.16 Z" fill="#000000" fill-rule="evenodd" fill-opacity="1" /><path clip-path="url(#clip060)" d="M83.0984 613.465 L87.9827 613.465 L87.9827 619.345 L83.0984 619.345 L83.0984 613.465 Z" fill="#000000" fill-rule="evenodd" fill-opacity="1" /><path clip-path="url(#clip060)" d="M111.015 588.859 L99.2095 607.308 L111.015 607.308 L111.015 588.859 M109.788 584.785 L115.668 584.785 L115.668 607.308 L120.598 607.308 L120.598 611.197 L115.668 611.197 L115.668 619.345 L111.015 619.345 L111.015 611.197 L95.4132 611.197 L95.4132 606.683 L109.788 584.785 Z" fill="#000000" fill-rule="evenodd" fill-opacity="1" /><path clip-path="url(#clip060)" d="M63.2606 236.708 Q59.6495 236.708 57.8208 240.273 Q56.0152 243.815 56.0152 250.944 Q56.0152 258.051 57.8208 261.616 Q59.6495 265.157 63.2606 265.157 Q66.8948 265.157 68.7004 261.616 Q70.5291 258.051 70.5291 250.944 Q70.5291 243.815 68.7004 240.273 Q66.8948 236.708 63.2606 236.708 M63.2606 233.005 Q69.0707 233.005 72.1263 237.611 Q75.205 242.194 75.205 250.944 Q75.205 259.671 72.1263 264.278 Q69.0707 268.861 63.2606 268.861 Q57.4504 268.861 54.3717 264.278 Q51.3162 259.671 51.3162 250.944 Q51.3162 242.194 54.3717 237.611 Q57.4504 233.005 63.2606 233.005 Z" fill="#000000" fill-rule="evenodd" fill-opacity="1" /><path clip-path="url(#clip060)" d="M83.4225 262.31 L88.3067 262.31 L88.3067 268.19 L83.4225 268.19 L83.4225 262.31 Z" fill="#000000" fill-rule="evenodd" fill-opacity="1" /><path clip-path="url(#clip060)" d="M109.071 249.046 Q105.922 249.046 104.071 251.199 Q102.242 253.352 102.242 257.102 Q102.242 260.828 104.071 263.004 Q105.922 265.157 109.071 265.157 Q112.219 265.157 114.047 263.004 Q115.899 260.828 115.899 257.102 Q115.899 253.352 114.047 251.199 Q112.219 249.046 109.071 249.046 M118.353 234.393 L118.353 238.653 Q116.594 237.819 114.788 237.38 Q113.006 236.94 111.246 236.94 Q106.617 236.94 104.163 240.065 Q101.733 243.19 101.385 249.509 Q102.751 247.495 104.811 246.43 Q106.871 245.342 109.348 245.342 Q114.557 245.342 117.566 248.514 Q120.598 251.662 120.598 257.102 Q120.598 262.426 117.45 265.643 Q114.302 268.861 109.071 268.861 Q103.075 268.861 99.9039 264.278 Q96.7326 259.671 96.7326 250.944 Q96.7326 242.75 100.621 237.889 Q104.51 233.005 111.061 233.005 Q112.82 233.005 114.603 233.352 Q116.408 233.699 118.353 234.393 Z" fill="#000000" fill-rule="evenodd" fill-opacity="1" /><polyline clip-path="url(#clip062)" style="stroke:#009af9; stroke-linecap:butt; stroke-linejoin:round; stroke-width:4; stroke-opacity:1; fill:none" points="
  218.754,1304.38 239.37,1242.11 259.784,1181.73 280.005,1123.2 300.036,1066.51 319.886,1011.64 339.559,958.578 359.062,907.294 378.402,857.773 397.584,809.998 
  416.615,763.948 435.501,719.604 454.248,676.948 472.863,635.961 491.351,596.623 509.719,558.917 527.973,522.822 546.119,488.32 564.164,455.392 582.113,424.018 
  599.973,394.181 617.751,365.861 635.452,339.038 653.082,313.695 670.648,289.812 688.156,267.37 705.613,246.35 723.024,226.734 740.395,208.501 757.733,191.634 
  775.045,176.113 792.335,161.92 809.611,149.035 826.879,137.44 844.145,127.115 861.415,118.041 878.695,110.2 895.992,103.573 913.311,98.1401 930.66,93.8831 
  948.044,90.7827 965.469,88.8201 982.942,87.9763 1000.47,88.2323 1018.06,89.5691 1035.71,91.9679 1053.43,95.4095 1071.24,99.8752 1089.13,105.346 1107.11,111.803 
  1125.19,119.226 1143.37,127.598 1161.66,136.899 1180.07,147.11 1198.6,158.213 1217.25,170.188 1236.05,183.016 1254.98,196.678 1274.06,211.156 1293.3,226.43 
  1312.69,242.482 1332.25,259.292 1351.98,276.842 1371.89,295.112 1391.98,314.084 1412.27,333.738 1432.75,354.057 1453.43,375.019 1474.33,396.608 1495.43,418.804 
  1516.77,441.587 1538.32,464.939 1560.12,488.841 1582.15,513.274 1604.43,538.219 1626.96,563.657 1649.75,589.569 1672.81,615.937 1696.14,642.74 1719.74,669.96 
  1743.63,697.579 1767.81,725.577 1792.29,753.935 1817.07,782.635 1842.15,811.657 1867.56,840.982 1893.28,870.592 1919.33,900.467 1945.71,930.589 1972.44,960.938 
  1999.51,991.496 2026.93,1022.24 2054.71,1053.16 2082.85,1084.23 2111.37,1115.43 2140.26,1146.75 2169.54,1178.16 2199.2,1209.65 2229.27,1241.19 2259.73,1272.77 
  2290.6,1304.38 
  "/>
<polyline clip-path="url(#clip062)" style="stroke:#e26f46; stroke-linecap:butt; stroke-linejoin:round; stroke-width:4; stroke-opacity:1; fill:none" points="
  218.754,1304.38 219.371,1253.27 221.207,1205.26 224.236,1160.27 228.433,1118.24 233.775,1079.09 240.235,1042.76 247.789,1009.18 256.412,978.279 266.079,949.992 
  276.765,924.25 288.446,900.983 301.097,880.124 314.693,861.603 329.208,845.352 344.618,831.304 360.899,819.388 378.025,809.537 395.971,801.683 414.713,795.756 
  434.226,791.689 454.484,789.412 475.464,788.859 497.139,789.959 519.486,792.644 542.48,796.846 566.095,802.497 590.306,809.528 615.09,817.871 640.42,827.457 
  666.273,838.217 692.622,850.083 719.444,862.987 746.714,876.861 774.406,891.635 802.496,907.241 830.96,923.611 859.771,940.676 888.905,958.368 918.338,976.619 
  948.044,995.359 977.998,1014.52 1008.18,1034.04 1038.55,1053.83 1069.11,1073.85 1099.81,1094.01 1130.63,1114.25 1161.56,1134.51 1192.55,1154.7 1223.6,1174.77 
  1254.68,1194.64 1285.75,1214.25 1316.8,1233.53 1347.8,1252.4 1378.72,1270.81 1409.55,1288.68 1440.25,1305.95 1470.8,1322.54 1501.18,1338.39 1531.36,1353.43 
  1561.31,1367.58 1591.02,1380.79 1620.45,1392.99 1649.58,1404.09 1678.39,1414.05 1706.86,1422.78 1734.95,1430.22 1762.64,1436.31 1789.91,1440.96 1816.73,1444.12 
  1843.08,1445.72 1868.93,1445.68 1894.26,1443.94 1919.05,1440.43 1943.26,1435.08 1966.87,1427.83 1989.87,1418.6 2012.21,1407.33 2033.89,1393.94 2054.87,1378.38 
  2075.13,1360.56 2094.64,1340.43 2113.38,1317.91 2131.33,1292.94 2148.46,1265.44 2164.74,1235.35 2180.15,1202.6 2194.66,1167.13 2208.26,1128.85 2220.91,1087.72 
  2232.59,1043.64 2243.28,996.568 2252.94,946.422 2261.57,893.137 2269.12,836.644 2275.58,776.874 2280.92,713.76 2285.12,647.233 2288.15,577.224 2289.98,503.665 
  2290.6,426.487 
  "/>
<polyline clip-path="url(#clip062)" style="stroke:#3da44d; stroke-linecap:butt; stroke-linejoin:round; stroke-width:4; stroke-opacity:1; fill:none" points="
  218.754,1304.38 434.226,791.689 948.044,995.359 1561.31,1367.58 2075.13,1360.56 2290.6,426.487 
  "/>
<path clip-path="url(#clip060)" d="
M1982.52 302.578 L2279.55 302.578 L2279.55 95.2176 L1982.52 95.2176  Z
  " fill="#ffffff" fill-rule="evenodd" fill-opacity="1"/>
<polyline clip-path="url(#clip060)" style="stroke:#000000; stroke-linecap:butt; stroke-linejoin:round; stroke-width:4; stroke-opacity:1; fill:none" points="
  1982.52,302.578 2279.55,302.578 2279.55,95.2176 1982.52,95.2176 1982.52,302.578 
  "/>
<polyline clip-path="url(#clip060)" style="stroke:#009af9; stroke-linecap:butt; stroke-linejoin:round; stroke-width:4; stroke-opacity:1; fill:none" points="
  2006.93,147.058 2153.34,147.058 
  "/>
<path clip-path="url(#clip060)" d="M2191.58 166.745 Q2189.78 171.375 2188.06 172.787 Q2186.35 174.199 2183.48 174.199 L2180.08 174.199 L2180.08 170.634 L2182.58 170.634 Q2184.34 170.634 2185.31 169.8 Q2186.28 168.967 2187.46 165.865 L2188.22 163.921 L2177.74 138.412 L2182.25 138.412 L2190.35 158.689 L2198.46 138.412 L2202.97 138.412 L2191.58 166.745 Z" fill="#000000" fill-rule="evenodd" fill-opacity="1" /><path clip-path="url(#clip060)" d="M2210.26 160.402 L2217.9 160.402 L2217.9 134.037 L2209.59 135.703 L2209.59 131.444 L2217.85 129.778 L2222.53 129.778 L2222.53 160.402 L2230.17 160.402 L2230.17 164.338 L2210.26 164.338 L2210.26 160.402 Z" fill="#000000" fill-rule="evenodd" fill-opacity="1" /><polyline clip-path="url(#clip060)" style="stroke:#e26f46; stroke-linecap:butt; stroke-linejoin:round; stroke-width:4; stroke-opacity:1; fill:none" points="
  2006.93,198.898 2153.34,198.898 
  "/>
<path clip-path="url(#clip060)" d="M2191.58 218.585 Q2189.78 223.215 2188.06 224.627 Q2186.35 226.039 2183.48 226.039 L2180.08 226.039 L2180.08 222.474 L2182.58 222.474 Q2184.34 222.474 2185.31 221.64 Q2186.28 220.807 2187.46 217.705 L2188.22 215.761 L2177.74 190.252 L2182.25 190.252 L2190.35 210.529 L2198.46 190.252 L2202.97 190.252 L2191.58 218.585 Z" fill="#000000" fill-rule="evenodd" fill-opacity="1" /><path clip-path="url(#clip060)" d="M2213.48 212.242 L2229.8 212.242 L2229.8 216.178 L2207.85 216.178 L2207.85 212.242 Q2210.52 209.488 2215.1 204.858 Q2219.71 200.205 2220.89 198.863 Q2223.13 196.34 2224.01 194.604 Q2224.91 192.844 2224.91 191.155 Q2224.91 188.4 2222.97 186.664 Q2221.05 184.928 2217.95 184.928 Q2215.75 184.928 2213.29 185.692 Q2210.86 186.455 2208.09 188.006 L2208.09 183.284 Q2210.91 182.15 2213.36 181.571 Q2215.82 180.993 2217.85 180.993 Q2223.22 180.993 2226.42 183.678 Q2229.61 186.363 2229.61 190.854 Q2229.61 192.983 2228.8 194.905 Q2228.02 196.803 2225.91 199.395 Q2225.33 200.067 2222.23 203.284 Q2219.13 206.479 2213.48 212.242 Z" fill="#000000" fill-rule="evenodd" fill-opacity="1" /><polyline clip-path="url(#clip060)" style="stroke:#3da44d; stroke-linecap:butt; stroke-linejoin:round; stroke-width:4; stroke-opacity:1; fill:none" points="
  2006.93,250.738 2153.34,250.738 
  "/>
<path clip-path="url(#clip060)" d="M2191.58 270.425 Q2189.78 275.055 2188.06 276.467 Q2186.35 277.879 2183.48 277.879 L2180.08 277.879 L2180.08 274.314 L2182.58 274.314 Q2184.34 274.314 2185.31 273.48 Q2186.28 272.647 2187.46 269.545 L2188.22 267.601 L2177.74 242.092 L2182.25 242.092 L2190.35 262.369 L2198.46 242.092 L2202.97 242.092 L2191.58 270.425 Z" fill="#000000" fill-rule="evenodd" fill-opacity="1" /><path clip-path="url(#clip060)" d="M2223.62 249.383 Q2226.97 250.101 2228.85 252.369 Q2230.75 254.638 2230.75 257.971 Q2230.75 263.087 2227.23 265.888 Q2223.71 268.689 2217.23 268.689 Q2215.05 268.689 2212.74 268.249 Q2210.45 267.832 2207.99 266.976 L2207.99 262.462 Q2209.94 263.596 2212.25 264.175 Q2214.57 264.754 2217.09 264.754 Q2221.49 264.754 2223.78 263.018 Q2226.09 261.281 2226.09 257.971 Q2226.09 254.916 2223.94 253.203 Q2221.81 251.467 2217.99 251.467 L2213.96 251.467 L2213.96 247.624 L2218.18 247.624 Q2221.63 247.624 2223.46 246.258 Q2225.28 244.87 2225.28 242.277 Q2225.28 239.615 2223.39 238.203 Q2221.51 236.768 2217.99 236.768 Q2216.07 236.768 2213.87 237.184 Q2211.67 237.601 2209.03 238.481 L2209.03 234.314 Q2211.7 233.573 2214.01 233.203 Q2216.35 232.833 2218.41 232.833 Q2223.73 232.833 2226.84 235.263 Q2229.94 237.67 2229.94 241.791 Q2229.94 244.661 2228.29 246.652 Q2226.65 248.62 2223.62 249.383 Z" fill="#000000" fill-rule="evenodd" fill-opacity="1" /></svg>
