<?xml version="1.0" encoding="UTF-8" standalone="no"?>
<!-- Created with Inkscape (http://www.inkscape.org/) -->

<svg
   width="1115.7267mm"
   height="168.35381mm"
   viewBox="0 0 1115.7267 168.35381"
   version="1.1"
   id="svg5"
   inkscape:version="1.3 (0e150ed6c4, 2023-07-21)"
   sodipodi:docname="logo_banner.svg"
   xmlns:inkscape="http://www.inkscape.org/namespaces/inkscape"
   xmlns:sodipodi="http://sodipodi.sourceforge.net/DTD/sodipodi-0.dtd"
   xmlns="http://www.w3.org/2000/svg"
   xmlns:svg="http://www.w3.org/2000/svg"
   xmlns:serif="http://www.serif.com/">
  <sodipodi:namedview
     id="namedview7"
     pagecolor="#3b3b3b"
     bordercolor="#111111"
     borderopacity="1"
     inkscape:pageshadow="0"
     inkscape:pageopacity="0"
     inkscape:pagecheckerboard="1"
     inkscape:document-units="mm"
     showgrid="false"
     inkscape:snap-bbox="true"
     inkscape:object-paths="true"
     inkscape:snap-object-midpoints="true"
     inkscape:zoom="0.51423374"
     inkscape:cx="1937.8347"
     inkscape:cy="524.08074"
     inkscape:window-width="3840"
     inkscape:window-height="2054"
     inkscape:window-x="2149"
     inkscape:window-y="-11"
     inkscape:window-maximized="1"
     inkscape:current-layer="g4177"
     inkscape:showpageshadow="2"
     inkscape:deskcolor="#d1d1d1" />
  <defs
     id="defs2" />
  <g
     inkscape:label="Layer 1"
     inkscape:groupmode="layer"
     id="layer1"
     transform="translate(-0.68035734,-51.354122)">
    <g
       id="g4177">
      <path
         style="color:#000000;fill:#d7d7d7;fill-opacity:1;stroke:#9a8888;stroke-width:3;stroke-linecap:round;stroke-miterlimit:4;stroke-dasharray:none;stroke-opacity:1"
         d="m 141.74414,97.054687 c -2.18436,0.02717 -4.34507,0.194075 -6.46875,0.498047 -16.98946,2.431779 -31.48926,11.074686 -45.017578,18.517576 -13.528321,7.44289 -26.010992,13.63446 -35.789062,14.58594 -9.77807,0.95148 -17.593153,-0.9859 -28.966797,-15.14453 A 13,13 0 0 0 7.2265625,113.51953 13,13 0 0 0 5.2324219,131.79492 c 15.2440791,18.9768 34.4080231,26.42616 51.7539061,24.73828 17.345884,-1.68788 32.131283,-10.16088 45.804692,-17.68359 13.6734,-7.52271 26.30638,-14.14706 36.16796,-15.55859 9.86159,-1.41154 17.09273,-0.0723 27.99219,12.77343 a 13,13 0 0 0 18.32422,1.50196 13,13 0 0 0 1.5,-18.32227 C 173.49951,103.59761 157.03468,96.864482 141.74414,97.054687 Z"
         id="path857" />
      <circle
         style="fill:#657cc6;fill-opacity:1;stroke:#4063d8;stroke-width:2.29058;stroke-linecap:round;stroke-miterlimit:4;stroke-dasharray:none;stroke-opacity:1"
         id="path1336"
         cx="15.367049"
         cy="123.65407"
         r="13.541402" />
      <circle
         style="fill:#9558b2;fill-opacity:1;stroke:none;stroke-width:4.99999;stroke-linecap:round;stroke-miterlimit:4;stroke-dasharray:none;stroke-opacity:1"
         id="circle1562"
         cx="124.71989"
         cy="66.199516"
         r="13.220783" />
      <circle
         style="fill:#398926;fill-opacity:1;stroke:none;stroke-width:4.99999;stroke-linecap:round;stroke-miterlimit:4;stroke-dasharray:none"
         id="circle1690"
         cx="176.86374"
         cy="127.65462"
         r="13.220783" />
      <circle
         style="fill:#cb3c33;fill-opacity:1;stroke:none;stroke-width:4.99999;stroke-linecap:round;stroke-miterlimit:4;stroke-dasharray:none"
         id="circle1800"
         cx="68.602547"
         cy="189.925"
         r="13.220783" />
      <path
         style="font-size:165.137px;line-height:1.25;font-family:JuliaMono;-inkscape-font-specification:'JuliaMono, Normal';stroke:#f2f2f2;stroke-width:2.906"
         d="m 341.04087,148.29747 q 0,8.9503 -3.38659,15.80413 -3.3866,6.85383 -9.11157,11.28866 -6.77319,5.3218 -14.91716,7.57953 -8.06333,2.25773 -20.56149,2.25773 H 250.48968 V 65.164544 h 35.55929 q 13.14322,0 19.67452,0.967599 6.5313,0.9676 12.49816,4.031665 6.61193,3.467232 9.59536,8.950296 2.98344,5.402431 2.98344,12.981961 0,8.547125 -4.3542,14.594625 -4.3542,5.96687 -11.6112,9.59536 v 0.64507 q 12.17563,2.49963 19.19073,10.72423 7.01509,8.14396 7.01509,20.64212 z M 314.18999,94.192531 q 0,-4.354198 -1.4514,-7.33763 -1.4514,-2.983432 -4.67673,-4.837998 -3.78977,-2.177099 -9.1922,-2.660899 -5.40243,-0.564433 -13.38513,-0.564433 h -19.02946 v 34.672319 h 20.64213 q 7.4989,0 11.93373,-0.7257 4.43483,-0.80633 8.22459,-3.22533 3.78977,-2.419 5.3218,-6.20877 1.61267,-3.870395 1.61267,-9.111559 z m 10.24043,54.750009 q 0,-7.257 -2.1771,-11.53056 -2.1771,-4.27357 -7.90207,-7.257 -3.8704,-2.01583 -9.43409,-2.58026 -5.48307,-0.64507 -13.38513,-0.64507 H 266.45507 V 171.6005 H 287.581 q 10.48233,0 17.17489,-1.04824 6.69256,-1.12886 10.96613,-4.03166 4.51546,-3.1447 6.61193,-7.17636 2.09647,-4.03167 2.09647,-10.4017 z m 113.45105,-7.17636 h -66.36121 q 0,8.30523 2.49964,14.51399 2.49963,6.12813 6.85383,10.07916 4.19293,3.8704 9.91789,5.8056 5.8056,1.9352 12.74006,1.9352 9.1922,0 18.46503,-3.6285 9.35346,-3.70913 13.30449,-7.257 h 0.80633 v 16.52983 q -7.66016,3.22533 -15.64285,5.40243 -7.9827,2.1771 -16.77173,2.1771 -22.41606,0 -34.99485,-12.095 -12.5788,-12.17562 -12.5788,-34.51105 0,-22.09352 12.01436,-35.07548 12.095,-12.981962 31.76952,-12.981962 18.22313,0 28.06039,10.643592 9.9179,10.6436 9.9179,30.23749 z m -14.7559,-11.6112 q -0.0806,-11.93373 -6.04749,-18.46502 -5.88623,-6.5313 -17.98123,-6.5313 -12.17563,0 -19.43262,7.17636 -7.17637,7.17637 -8.14397,17.81996 z m 103.04935,55.07254 H 453.44369 V 174.0195 l 52.49228,-66.19994 H 454.57256 V 95.16013 h 70.2316 v 10.80486 l -52.73418,66.44184 h 54.10494 z M 563.91131,80.081704 H 546.81705 V 64.358211 h 17.09426 z m -0.9676,105.145816 H 547.78465 V 95.16013 h 15.15906 z m 105.38772,-43.46134 h -66.3612 q 0,8.30523 2.49963,14.51399 2.49963,6.12813 6.85383,10.07916 4.19293,3.8704 9.9179,5.8056 5.8056,1.9352 12.74006,1.9352 9.19219,0 18.46502,-3.6285 9.35347,-3.70913 13.3045,-7.257 h 0.80633 v 16.52983 q -7.66016,3.22533 -15.64286,5.40243 -7.98269,2.1771 -16.77172,2.1771 -22.41606,0 -34.99486,-12.095 -12.57879,-12.17562 -12.57879,-34.51105 0,-22.09352 12.01436,-35.07548 12.095,-12.981962 31.76952,-12.981962 18.22313,0 28.06039,10.643592 9.91789,10.6436 9.91789,30.23749 z m -14.75589,-11.6112 q -0.0806,-11.93373 -6.0475,-18.46502 -5.88623,-6.5313 -17.98122,-6.5313 -12.17563,0 -19.43263,7.17636 -7.17636,7.17637 -8.14396,17.81996 z m 93.93779,-18.46502 H 746.707 q -3.3866,-0.80634 -6.61193,-1.12887 -3.1447,-0.40317 -7.4989,-0.40317 -7.0151,0 -13.5464,3.1447 -6.53129,3.06407 -12.57879,7.9827 v 63.9422 H 691.31192 V 95.16013 h 15.15906 v 13.30449 q 9.03093,-7.25699 15.88476,-10.240424 6.93446,-3.064066 14.11083,-3.064066 3.95103,0 5.72496,0.2419 1.77393,0.161267 5.3218,0.7257 z m 15.64286,73.53756 h -19.27136 v -22.98049 h 19.27136 z M 826.53393,80.081704 H 809.43967 V 64.358211 h 17.09426 z m -0.9676,107.322916 q 0,15.80413 -8.06333,23.86746 -8.06333,8.06333 -21.60972,8.06333 -3.22534,0 -8.54713,-0.64507 -5.24117,-0.64506 -8.78903,-1.61266 v -14.43336 h 0.80633 q 2.25773,0.88696 6.0475,2.01583 3.8704,1.12886 7.49889,1.12886 5.8056,0 9.35347,-1.61266 3.54786,-1.61267 5.32179,-4.838 1.77394,-3.22533 2.25774,-7.82143 0.56443,-4.51546 0.56443,-11.04676 V 107.90019 H 791.61971 V 95.16013 h 33.94662 z m 45.07403,-2.1771 H 855.4813 V 59.762113 h 15.15906 z"
         id="text9493"
         aria-label="Bezier.jl" />
      <g
         id="Layer-1"
         serif:id="Layer 1"
         transform="matrix(0.25136819,0,0,0.25136819,155.77376,-221.67157)"
         style="clip-rule:evenodd;fill-rule:evenodd;stroke-linejoin:round;stroke-miterlimit:2">
        <g
           transform="matrix(0.749283,0,0,0.749283,-62.845328,547.82818)"
           id="g28842">
          <g
             id="Layer-11"
             serif:id="Layer 1">
            <g
               id="g51">
              <circle
                 id="circle18"
                 cx="-378.95114"
                 cy="1454.186"
                 r="73.969734"
                 style="fill:#d66661;stroke:#c93d39;stroke-width:13.4427px;stroke-linejoin:miter;stroke-miterlimit:4" />
              <circle
                 id="circle22"
                 cx="-81.002853"
                 cy="797.2804"
                 r="72.254311"
                 style="fill:#aa7dc0;stroke:#945bb0;stroke-width:13.131px;stroke-linejoin:miter;stroke-miterlimit:4" />
              <circle
                 id="circle20"
                 cx="195.84865"
                 cy="1123.569"
                 r="71.353371"
                 style="fill:#6bab5b;stroke:#3b972e;stroke-width:12.9672px;stroke-linejoin:miter;stroke-miterlimit:4" />
            </g>
          </g>
        </g>
      </g>
    </g>
  </g>
</svg>
